<?xml version="1.0" standalone="no"?>
<!DOCTYPE svg PUBLIC "-//W3C//DTD SVG 20010904//EN"
 "http://www.w3.org/TR/2001/REC-SVG-20010904/DTD/svg10.dtd">
<svg version="1.0" xmlns="http://www.w3.org/2000/svg"
 width="512.000000pt" height="512.000000pt" viewBox="0 0 512.000000 512.000000"
 preserveAspectRatio="xMidYMid meet">

<g transform="translate(0.000000,512.000000) scale(0.100000,-0.100000)"
fill="#000000" stroke="none">
<path d="M2700 5105 c-102 -29 -199 -111 -247 -210 -56 -114 -58 -256 -5 -368
39 -84 114 -165 189 -203 53 -26 67 -29 158 -29 90 0 106 3 158 28 70 35 148
111 181 175 69 137 63 317 -15 435 -97 147 -263 215 -419 172z"/>
<path d="M3590 4060 l0 -180 -170 0 -170 0 2 -307 3 -308 168 -3 167 -2 0
-571 c0 -604 7 -723 50 -896 58 -228 193 -381 389 -438 184 -55 487 -32 672
51 l59 27 0 278 c0 154 -2 279 -3 279 -2 0 -30 -13 -63 -29 -183 -91 -356 -78
-427 31 -61 95 -61 90 -65 706 l-3 562 260 0 261 0 0 310 0 310 -260 0 -260 0
0 73 c0 41 -3 122 -7 180 l-6 107 -299 0 -298 0 0 -180z"/>
<path d="M2438 3928 l-3 -62 -118 -38 c-142 -45 -235 -65 -367 -78 -99 -11
-100 -11 -157 18 -68 34 -193 76 -277 92 -87 17 -286 15 -381 -5 -283 -59
-538 -261 -656 -520 -91 -202 -102 -465 -27 -673 70 -195 228 -401 354 -463
68 -34 76 -44 44 -54 -40 -13 -109 -104 -130 -172 -41 -134 -36 -307 12 -412
12 -25 49 -72 81 -104 32 -32 57 -60 55 -62 -1 -1 -39 -17 -82 -35 -236 -98
-373 -258 -412 -482 -37 -211 13 -418 135 -562 93 -109 210 -183 382 -240 166
-55 272 -69 524 -70 191 0 235 2 334 22 221 45 367 115 487 237 146 147 227
392 211 640 -10 156 -62 269 -171 373 -123 117 -286 187 -572 246 -99 21 -182
44 -218 62 -65 32 -145 106 -169 157 -35 72 -16 181 42 238 41 41 80 56 236
93 267 62 469 226 596 481 63 128 89 230 96 375 5 114 0 163 -31 261 l-14 46
81 23 c45 12 90 24 99 27 17 5 18 -48 20 -978 l3 -984 335 0 335 0 3 1333 2
1332 -339 0 -340 0 -3 -62z m-988 -579 c107 -24 193 -114 232 -242 17 -58 20
-87 16 -185 -6 -138 -28 -209 -85 -267 -128 -132 -414 -122 -524 17 -54 67
-72 138 -73 273 -1 97 3 133 21 191 25 77 81 152 137 181 76 40 187 53 276 32z
m186 -2292 c73 -21 151 -65 184 -105 80 -98 61 -289 -38 -367 -134 -107 -471
-122 -685 -31 -171 73 -198 330 -46 442 40 29 123 61 192 74 74 13 331 4 393
-13z"/>
</g>
</svg>
